<mxfile host="app.diagrams.net" agent="Mozilla/5.0 (Windows NT 10.0; Win64; x64) AppleWebKit/537.36 (KHTML, like Gecko) Chrome/129.0.0.0 Safari/537.36" version="24.7.16">
  <diagram name="Страница — 1" id="ADtpz5w0f67WMwiYPCLU">
    <mxGraphModel dx="1434" dy="746" grid="1" gridSize="10" guides="1" tooltips="1" connect="1" arrows="1" fold="1" page="1" pageScale="1" pageWidth="827" pageHeight="1169" math="0" shadow="0">
      <root>
        <mxCell id="0" />
        <mxCell id="1" parent="0" />
        <mxCell id="t6TXI8qJbhAecVwVPNtD-7" style="edgeStyle=orthogonalEdgeStyle;rounded=0;orthogonalLoop=1;jettySize=auto;html=1;entryX=0.5;entryY=0;entryDx=0;entryDy=0;" parent="1" source="t6TXI8qJbhAecVwVPNtD-2" target="t6TXI8qJbhAecVwVPNtD-3" edge="1">
          <mxGeometry relative="1" as="geometry" />
        </mxCell>
        <mxCell id="t6TXI8qJbhAecVwVPNtD-2" value="&lt;p class=&quot;docData;DOCY;v5;905;BQiAAgAAEYQCAAAGiAIAAAMIAwAABRYDAAAAAAAAAAAAAAAAAAAAAAAAAAAAAAAAAAAAAAAAAAAAAAAAAAAAAAAAAAAAAAAAAAAAAAAAAAAAAAAAAAAAAAAAAAAAAAAAAAAAAAAAAAAAAAAAAAAAAAAAAAAAAAAAAAAAAAAAAAAAAAAAAAAAAAAAAAAAAAAAAAAAAAAAAAAAAAAAAAAAAAAAAAAAAAAAAAAAAAAAAAAAAAAAAAAAAAAAAAAAAAAAAAAAAAAAAAAAAAAAAAAAAAAAAAAAAAAAAAAAAAAAAAAAAAAAAAAAAAAAAAAAAAAAAAAAAAAAAAAAAAAAAAAAAAAAAAAAAAAAAAAAAAAAAAAAAAAAAAAAAAAAAAAAAAAAAAAAAAAAAAAAAAAAAAAAAAAAAAAAAAAAAAAAAAAAAAAAAAAAAAAAAAAAAAAAAAAAAAAAAAAAAAAAAAAAAAAAAAAAAAAAAAAAAAAAAAAAAAAAAAAAAAAAAAAAAAAAAAAAAAAAAAAAAAAAAAAAAAAAAAAAAAAAAAAAAAAAAAAAAAAAAAAAAAAAAAAAAAAAAAAAAAAAAAAAAAAAAAAAAAAAAAAAAAAAAAAAAAAAAAAAAAAAAAAAAAAAAAAAAAAAAAAAAAAAAAAAAAAAAAAAAAAAAAAAAAAAAAAAAAAAAAAAAAAAAAAAAAAAAAAAAAAAAAAAAAAAAAAAAAAAAAAAAAAAAAAAAAAAAAAAAAAAAAAAAAAAAAAAAAAAAAAAAAAAAAAAAAAAAAAAAAAAAAAAAAAAAAAAAAAAAAAAAAAAAAAAAAAAAAAAAAAAAAAAAAAAAAAAAAAAAAAAAAAAAAAAAAAAAAAAAAAAAAAAfAAAAAB3AAAAARsAAAABBgAAAAAFAQEJBgAAAAAaBgAAAAAbBgAAAAACUgAAAAUvAAAAAQAAAAAIJQAAAAAgAAAARwBFAE4ARQBSAEEAVABFACAANAAsADIALgAuADEAMAAFCgAAAAEAAAAACAAAAAAFCgAAAAEAAAAACAAAAAAKAAAAAAAAAAARAAAAAG8AAAAAFQAAAAEGAAAAAAkGAAAAABkBABsGAAAAAAFLAAAAKAEHKQEHKgEHKwEFEwEBCAQWAAAAFgQWAAAAGQYKAAAAZQBuAC0AVQBTABoGCgAAAGEAcgAtAFMAQQAbBgoAAABlAG4ALQBVAFMAAgAAAAA=&quot; style=&quot;margin-top:0pt;margin-bottom:0pt;border:none;border-left:none;border-top:none;border-right:none;border-bottom:none;mso-border-between:none&quot;&gt;&lt;span style=&quot;font-family: &amp;quot;Times New Roman&amp;quot;; font-size: 11pt;&quot;&gt;GENERATE 25,0&lt;/span&gt;&lt;/p&gt;" style="ellipse;whiteSpace=wrap;html=1;" parent="1" vertex="1">
          <mxGeometry x="354" y="230" width="120" height="80" as="geometry" />
        </mxCell>
        <mxCell id="t6TXI8qJbhAecVwVPNtD-8" style="edgeStyle=orthogonalEdgeStyle;rounded=0;orthogonalLoop=1;jettySize=auto;html=1;" parent="1" source="t6TXI8qJbhAecVwVPNtD-3" target="t6TXI8qJbhAecVwVPNtD-4" edge="1">
          <mxGeometry relative="1" as="geometry" />
        </mxCell>
        <mxCell id="t6TXI8qJbhAecVwVPNtD-3" value="SEIZE" style="rounded=0;whiteSpace=wrap;html=1;" parent="1" vertex="1">
          <mxGeometry x="354" y="380" width="120" height="60" as="geometry" />
        </mxCell>
        <mxCell id="t6TXI8qJbhAecVwVPNtD-9" style="edgeStyle=orthogonalEdgeStyle;rounded=0;orthogonalLoop=1;jettySize=auto;html=1;" parent="1" source="t6TXI8qJbhAecVwVPNtD-4" target="t6TXI8qJbhAecVwVPNtD-5" edge="1">
          <mxGeometry relative="1" as="geometry" />
        </mxCell>
        <mxCell id="t6TXI8qJbhAecVwVPNtD-4" value="ADVANCE 6,2" style="rounded=0;whiteSpace=wrap;html=1;" parent="1" vertex="1">
          <mxGeometry x="354" y="490" width="120" height="60" as="geometry" />
        </mxCell>
        <mxCell id="t6TXI8qJbhAecVwVPNtD-10" style="edgeStyle=orthogonalEdgeStyle;rounded=0;orthogonalLoop=1;jettySize=auto;html=1;entryX=0.5;entryY=0;entryDx=0;entryDy=0;" parent="1" source="t6TXI8qJbhAecVwVPNtD-5" target="t6TXI8qJbhAecVwVPNtD-6" edge="1">
          <mxGeometry relative="1" as="geometry" />
        </mxCell>
        <mxCell id="t6TXI8qJbhAecVwVPNtD-5" value="REALSE&amp;nbsp;" style="rounded=0;whiteSpace=wrap;html=1;" parent="1" vertex="1">
          <mxGeometry x="354" y="590" width="120" height="60" as="geometry" />
        </mxCell>
        <mxCell id="t6TXI8qJbhAecVwVPNtD-6" value="TERMINATE" style="ellipse;whiteSpace=wrap;html=1;" parent="1" vertex="1">
          <mxGeometry x="354" y="700" width="120" height="80" as="geometry" />
        </mxCell>
        <mxCell id="t6TXI8qJbhAecVwVPNtD-14" value="&lt;font style=&quot;font-size: 16px;&quot;&gt;azs&lt;/font&gt;" style="strokeWidth=2;html=1;shape=mxgraph.flowchart.extract_or_measurement;whiteSpace=wrap;" parent="1" vertex="1">
          <mxGeometry x="474" y="380" width="95" height="60" as="geometry" />
        </mxCell>
        <mxCell id="t6TXI8qJbhAecVwVPNtD-15" value="&lt;font style=&quot;font-size: 16px;&quot;&gt;azs&lt;/font&gt;" style="strokeWidth=2;html=1;shape=mxgraph.flowchart.merge_or_storage;whiteSpace=wrap;" parent="1" vertex="1">
          <mxGeometry x="474" y="590" width="95" height="60" as="geometry" />
        </mxCell>
        <mxCell id="tm14qbuh2MyFYimfuB26-13" style="edgeStyle=orthogonalEdgeStyle;rounded=0;orthogonalLoop=1;jettySize=auto;html=1;entryX=0.5;entryY=0;entryDx=0;entryDy=0;" edge="1" parent="1" source="tm14qbuh2MyFYimfuB26-2" target="tm14qbuh2MyFYimfuB26-12">
          <mxGeometry relative="1" as="geometry" />
        </mxCell>
        <mxCell id="tm14qbuh2MyFYimfuB26-2" value="&lt;p class=&quot;docData;DOCY;v5;905;BQiAAgAAEYQCAAAGiAIAAAMIAwAABRYDAAAAAAAAAAAAAAAAAAAAAAAAAAAAAAAAAAAAAAAAAAAAAAAAAAAAAAAAAAAAAAAAAAAAAAAAAAAAAAAAAAAAAAAAAAAAAAAAAAAAAAAAAAAAAAAAAAAAAAAAAAAAAAAAAAAAAAAAAAAAAAAAAAAAAAAAAAAAAAAAAAAAAAAAAAAAAAAAAAAAAAAAAAAAAAAAAAAAAAAAAAAAAAAAAAAAAAAAAAAAAAAAAAAAAAAAAAAAAAAAAAAAAAAAAAAAAAAAAAAAAAAAAAAAAAAAAAAAAAAAAAAAAAAAAAAAAAAAAAAAAAAAAAAAAAAAAAAAAAAAAAAAAAAAAAAAAAAAAAAAAAAAAAAAAAAAAAAAAAAAAAAAAAAAAAAAAAAAAAAAAAAAAAAAAAAAAAAAAAAAAAAAAAAAAAAAAAAAAAAAAAAAAAAAAAAAAAAAAAAAAAAAAAAAAAAAAAAAAAAAAAAAAAAAAAAAAAAAAAAAAAAAAAAAAAAAAAAAAAAAAAAAAAAAAAAAAAAAAAAAAAAAAAAAAAAAAAAAAAAAAAAAAAAAAAAAAAAAAAAAAAAAAAAAAAAAAAAAAAAAAAAAAAAAAAAAAAAAAAAAAAAAAAAAAAAAAAAAAAAAAAAAAAAAAAAAAAAAAAAAAAAAAAAAAAAAAAAAAAAAAAAAAAAAAAAAAAAAAAAAAAAAAAAAAAAAAAAAAAAAAAAAAAAAAAAAAAAAAAAAAAAAAAAAAAAAAAAAAAAAAAAAAAAAAAAAAAAAAAAAAAAAAAAAAAAAAAAAAAAAAAAAAAAAAAAAAAAAAAAAAAAAAAAAAAAAAAAAAAAAAAAAAAAAAAAAfAAAAAB3AAAAARsAAAABBgAAAAAFAQEJBgAAAAAaBgAAAAAbBgAAAAACUgAAAAUvAAAAAQAAAAAIJQAAAAAgAAAARwBFAE4ARQBSAEEAVABFACAANAAsADIALgAuADEAMAAFCgAAAAEAAAAACAAAAAAFCgAAAAEAAAAACAAAAAAKAAAAAAAAAAARAAAAAG8AAAAAFQAAAAEGAAAAAAkGAAAAABkBABsGAAAAAAFLAAAAKAEHKQEHKgEHKwEFEwEBCAQWAAAAFgQWAAAAGQYKAAAAZQBuAC0AVQBTABoGCgAAAGEAcgAtAFMAQQAbBgoAAABlAG4ALQBVAFMAAgAAAAA=&quot; style=&quot;margin-top:0pt;margin-bottom:0pt;border:none;border-left:none;border-top:none;border-right:none;border-bottom:none;mso-border-between:none&quot;&gt;&lt;span style=&quot;font-family: &amp;quot;Times New Roman&amp;quot;; font-size: 11pt;&quot;&gt;GENERATE 25,0&lt;/span&gt;&lt;/p&gt;" style="ellipse;whiteSpace=wrap;html=1;" vertex="1" parent="1">
          <mxGeometry x="360" y="850" width="120" height="80" as="geometry" />
        </mxCell>
        <mxCell id="tm14qbuh2MyFYimfuB26-3" style="edgeStyle=orthogonalEdgeStyle;rounded=0;orthogonalLoop=1;jettySize=auto;html=1;" edge="1" parent="1" source="tm14qbuh2MyFYimfuB26-4" target="tm14qbuh2MyFYimfuB26-6">
          <mxGeometry relative="1" as="geometry" />
        </mxCell>
        <mxCell id="tm14qbuh2MyFYimfuB26-4" value="SEIZE" style="rounded=0;whiteSpace=wrap;html=1;" vertex="1" parent="1">
          <mxGeometry x="360" y="1060" width="120" height="60" as="geometry" />
        </mxCell>
        <mxCell id="tm14qbuh2MyFYimfuB26-5" style="edgeStyle=orthogonalEdgeStyle;rounded=0;orthogonalLoop=1;jettySize=auto;html=1;" edge="1" parent="1" source="tm14qbuh2MyFYimfuB26-6" target="tm14qbuh2MyFYimfuB26-8">
          <mxGeometry relative="1" as="geometry" />
        </mxCell>
        <mxCell id="tm14qbuh2MyFYimfuB26-6" value="ADVANCE 6,2" style="rounded=0;whiteSpace=wrap;html=1;" vertex="1" parent="1">
          <mxGeometry x="360" y="1180" width="120" height="60" as="geometry" />
        </mxCell>
        <mxCell id="tm14qbuh2MyFYimfuB26-7" style="edgeStyle=orthogonalEdgeStyle;rounded=0;orthogonalLoop=1;jettySize=auto;html=1;entryX=0.5;entryY=0;entryDx=0;entryDy=0;" edge="1" parent="1" source="tm14qbuh2MyFYimfuB26-8" target="tm14qbuh2MyFYimfuB26-9">
          <mxGeometry relative="1" as="geometry" />
        </mxCell>
        <mxCell id="tm14qbuh2MyFYimfuB26-8" value="REALSE&amp;nbsp;" style="rounded=0;whiteSpace=wrap;html=1;" vertex="1" parent="1">
          <mxGeometry x="360" y="1280" width="120" height="60" as="geometry" />
        </mxCell>
        <mxCell id="tm14qbuh2MyFYimfuB26-9" value="TERMINATE" style="ellipse;whiteSpace=wrap;html=1;" vertex="1" parent="1">
          <mxGeometry x="360" y="1390" width="120" height="80" as="geometry" />
        </mxCell>
        <mxCell id="tm14qbuh2MyFYimfuB26-10" value="&lt;span class=&quot;docData;DOCY;v5;1573;BQiAAgAAEYQCAAAGiAIAAAOkBQAABbIFAAAAAAAAAAAAAAAAAAAAAAAAAAAAAAAAAAAAAAAAAAAAAAAAAAAAAAAAAAAAAAAAAAAAAAAAAAAAAAAAAAAAAAAAAAAAAAAAAAAAAAAAAAAAAAAAAAAAAAAAAAAAAAAAAAAAAAAAAAAAAAAAAAAAAAAAAAAAAAAAAAAAAAAAAAAAAAAAAAAAAAAAAAAAAAAAAAAAAAAAAAAAAAAAAAAAAAAAAAAAAAAAAAAAAAAAAAAAAAAAAAAAAAAAAAAAAAAAAAAAAAAAAAAAAAAAAAAAAAAAAAAAAAAAAAAAAAAAAAAAAAAAAAAAAAAAAAAAAAAAAAAAAAAAAAAAAAAAAAAAAAAAAAAAAAAAAAAAAAAAAAAAAAAAAAAAAAAAAAAAAAAAAAAAAAAAAAAAAAAAAAAAAAAAAAAAAAAAAAAAAAAAAAAAAAAAAAAAAAAAAAAAAAAAAAAAAAAAAAAAAAAAAAAAAAAAAAAAAAAAAAAAAAAAAAAAAAAAAAAAAAAAAAAAAAAAAAAAAAAAAAAAAAAAAAAAAAAAAAAAAAAAAAAAAAAAAAAAAAAAAAAAAAAAAAAAAAAAAAAAAAAAAAAAAAAAAAAAAAAAAAAAAAAAAAAAAAAAAAAAAAAAAAAAAAAAAAAAAAAAAAAAAAAAAAAAAAAAAAAAAAAAAAAAAAAAAAAAAAAAAAAAAAAAAAAAAAAAAAAAAAAAAAAAAAAAAAAAAAAAAAAAAAAAAAAAAAAAAAAAAAAAAAAAAAAAAAAAAAAAAAAAAAAAAAAAAAAAAAAAAAAAAAAAAAAAAAAAAAAAAAAAAAAAAAAAAAAAAAAAAAAAAAAAAAAAGAMAAAATAwAAARIBAAABBhIAAAAkBAAAAAAlBAAAAAAmBAAAAAAJBgwAAAAoBAAAAAApBAAAAAAaBngAAAAEBh4AAABUAGkAbQBlAHMAIABOAGUAdwAgAFIAbwBtAGEAbgAFBh4AAABUAGkAbQBlAHMAIABOAGUAdwAgAFIAbwBtAGEAbgAHBh4AAABUAGkAbQBlAHMAIABOAGUAdwAgAFIAbwBtAGEAbgAIBBwAAAAWBBwAAAAbBmQAAAAAFAAAAAADAAAABQQAAAAABgQEAAAAAwEAARQAAAAAAwAAAAUEAAAAAAYEBAAAAAMBAAIUAAAAAAMAAAAFBAAAAAAGBAQAAAADAQADFAAAAAADAAAABQQAAAAABgQEAAAAAwEAAvcBAAAFxgAAAAGhAAAABAYeAAAAVABpAG0AZQBzACAATgBlAHcAIABSAG8AbQBhAG4ABQYeAAAAVABpAG0AZQBzACAATgBlAHcAIABSAG8AbQBhAG4ABwYeAAAAVABpAG0AZQBzACAATgBlAHcAIABSAG8AbQBhAG4ABgYeAAAAVABpAG0AZQBzACAATgBlAHcAIABSAG8AbQBhAG4ACAQcAAAACQMAAAAWBBwAAAAIGwAAAAAWAAAAIABFAHgAYQBtAGkAbgBlAHIAIACgAAWCAAAAAXgAAAAEBh4AAABUAGkAbQBlAHMAIABOAGUAdwAgAFIAbwBtAGEAbgAFBh4AAABUAGkAbQBlAHMAIABOAGUAdwAgAFIAbwBtAGEAbgAHBh4AAABUAGkAbQBlAHMAIABOAGUAdwAgAFIAbwBtAGEAbgAIBBwAAAAWBBwAAAAIAAAAAAWCAAAAAXgAAAAEBh4AAABUAGkAbQBlAHMAIABOAGUAdwAgAFIAbwBtAGEAbgAFBh4AAABUAGkAbQBlAHMAIABOAGUAdwAgAFIAbwBtAGEAbgAHBh4AAABUAGkAbQBlAHMAIABOAGUAdwAgAFIAbwBtAGEAbgAIBBwAAAAWBBwAAAAIAAAAAAUKAAAAAQAAAAAIAAAAAAUKAAAACAUAAAANAAAAAAoAAAAAAAAAABEAAAAAbwAAAAAVAAAAAQYAAAAACQYAAAAAGQEAGwYAAAAAAUsAAAAoAQcpAQcqAQcrAQUTAQEIBBYAAAAWBBYAAAAZBgoAAABlAG4ALQBVAFMAGgYKAAAAYQByAC0AUwBBABsGCgAAAGUAbgAtAFUAUwACAAAAAA==&quot; style=&quot;font-family: &amp;quot;Times New Roman&amp;quot;;&quot;&gt;&lt;font style=&quot;font-size: 10px;&quot;&gt;&amp;nbsp;&lt;/font&gt;&lt;/span&gt;&lt;div&gt;&lt;span class=&quot;docData;DOCY;v5;1573;BQiAAgAAEYQCAAAGiAIAAAOkBQAABbIFAAAAAAAAAAAAAAAAAAAAAAAAAAAAAAAAAAAAAAAAAAAAAAAAAAAAAAAAAAAAAAAAAAAAAAAAAAAAAAAAAAAAAAAAAAAAAAAAAAAAAAAAAAAAAAAAAAAAAAAAAAAAAAAAAAAAAAAAAAAAAAAAAAAAAAAAAAAAAAAAAAAAAAAAAAAAAAAAAAAAAAAAAAAAAAAAAAAAAAAAAAAAAAAAAAAAAAAAAAAAAAAAAAAAAAAAAAAAAAAAAAAAAAAAAAAAAAAAAAAAAAAAAAAAAAAAAAAAAAAAAAAAAAAAAAAAAAAAAAAAAAAAAAAAAAAAAAAAAAAAAAAAAAAAAAAAAAAAAAAAAAAAAAAAAAAAAAAAAAAAAAAAAAAAAAAAAAAAAAAAAAAAAAAAAAAAAAAAAAAAAAAAAAAAAAAAAAAAAAAAAAAAAAAAAAAAAAAAAAAAAAAAAAAAAAAAAAAAAAAAAAAAAAAAAAAAAAAAAAAAAAAAAAAAAAAAAAAAAAAAAAAAAAAAAAAAAAAAAAAAAAAAAAAAAAAAAAAAAAAAAAAAAAAAAAAAAAAAAAAAAAAAAAAAAAAAAAAAAAAAAAAAAAAAAAAAAAAAAAAAAAAAAAAAAAAAAAAAAAAAAAAAAAAAAAAAAAAAAAAAAAAAAAAAAAAAAAAAAAAAAAAAAAAAAAAAAAAAAAAAAAAAAAAAAAAAAAAAAAAAAAAAAAAAAAAAAAAAAAAAAAAAAAAAAAAAAAAAAAAAAAAAAAAAAAAAAAAAAAAAAAAAAAAAAAAAAAAAAAAAAAAAAAAAAAAAAAAAAAAAAAAAAAAAAAAAAAAAAAAAAAAAAAAAAAAAGAMAAAATAwAAARIBAAABBhIAAAAkBAAAAAAlBAAAAAAmBAAAAAAJBgwAAAAoBAAAAAApBAAAAAAaBngAAAAEBh4AAABUAGkAbQBlAHMAIABOAGUAdwAgAFIAbwBtAGEAbgAFBh4AAABUAGkAbQBlAHMAIABOAGUAdwAgAFIAbwBtAGEAbgAHBh4AAABUAGkAbQBlAHMAIABOAGUAdwAgAFIAbwBtAGEAbgAIBBwAAAAWBBwAAAAbBmQAAAAAFAAAAAADAAAABQQAAAAABgQEAAAAAwEAARQAAAAAAwAAAAUEAAAAAAYEBAAAAAMBAAIUAAAAAAMAAAAFBAAAAAAGBAQAAAADAQADFAAAAAADAAAABQQAAAAABgQEAAAAAwEAAvcBAAAFxgAAAAGhAAAABAYeAAAAVABpAG0AZQBzACAATgBlAHcAIABSAG8AbQBhAG4ABQYeAAAAVABpAG0AZQBzACAATgBlAHcAIABSAG8AbQBhAG4ABwYeAAAAVABpAG0AZQBzACAATgBlAHcAIABSAG8AbQBhAG4ABgYeAAAAVABpAG0AZQBzACAATgBlAHcAIABSAG8AbQBhAG4ACAQcAAAACQMAAAAWBBwAAAAIGwAAAAAWAAAAIABFAHgAYQBtAGkAbgBlAHIAIACgAAWCAAAAAXgAAAAEBh4AAABUAGkAbQBlAHMAIABOAGUAdwAgAFIAbwBtAGEAbgAFBh4AAABUAGkAbQBlAHMAIABOAGUAdwAgAFIAbwBtAGEAbgAHBh4AAABUAGkAbQBlAHMAIABOAGUAdwAgAFIAbwBtAGEAbgAIBBwAAAAWBBwAAAAIAAAAAAWCAAAAAXgAAAAEBh4AAABUAGkAbQBlAHMAIABOAGUAdwAgAFIAbwBtAGEAbgAFBh4AAABUAGkAbQBlAHMAIABOAGUAdwAgAFIAbwBtAGEAbgAHBh4AAABUAGkAbQBlAHMAIABOAGUAdwAgAFIAbwBtAGEAbgAIBBwAAAAWBBwAAAAIAAAAAAUKAAAAAQAAAAAIAAAAAAUKAAAACAUAAAANAAAAAAoAAAAAAAAAABEAAAAAbwAAAAAVAAAAAQYAAAAACQYAAAAAGQEAGwYAAAAAAUsAAAAoAQcpAQcqAQcrAQUTAQEIBBYAAAAWBBYAAAAZBgoAAABlAG4ALQBVAFMAGgYKAAAAYQByAC0AUwBBABsGCgAAAGUAbgAtAFUAUwACAAAAAA==&quot; style=&quot;font-family: &amp;quot;Times New Roman&amp;quot;;&quot;&gt;&lt;font style=&quot;font-size: 10px;&quot;&gt;&lt;br&gt;&lt;/font&gt;&lt;/span&gt;&lt;/div&gt;&lt;div&gt;&lt;span class=&quot;docData;DOCY;v5;1573;BQiAAgAAEYQCAAAGiAIAAAOkBQAABbIFAAAAAAAAAAAAAAAAAAAAAAAAAAAAAAAAAAAAAAAAAAAAAAAAAAAAAAAAAAAAAAAAAAAAAAAAAAAAAAAAAAAAAAAAAAAAAAAAAAAAAAAAAAAAAAAAAAAAAAAAAAAAAAAAAAAAAAAAAAAAAAAAAAAAAAAAAAAAAAAAAAAAAAAAAAAAAAAAAAAAAAAAAAAAAAAAAAAAAAAAAAAAAAAAAAAAAAAAAAAAAAAAAAAAAAAAAAAAAAAAAAAAAAAAAAAAAAAAAAAAAAAAAAAAAAAAAAAAAAAAAAAAAAAAAAAAAAAAAAAAAAAAAAAAAAAAAAAAAAAAAAAAAAAAAAAAAAAAAAAAAAAAAAAAAAAAAAAAAAAAAAAAAAAAAAAAAAAAAAAAAAAAAAAAAAAAAAAAAAAAAAAAAAAAAAAAAAAAAAAAAAAAAAAAAAAAAAAAAAAAAAAAAAAAAAAAAAAAAAAAAAAAAAAAAAAAAAAAAAAAAAAAAAAAAAAAAAAAAAAAAAAAAAAAAAAAAAAAAAAAAAAAAAAAAAAAAAAAAAAAAAAAAAAAAAAAAAAAAAAAAAAAAAAAAAAAAAAAAAAAAAAAAAAAAAAAAAAAAAAAAAAAAAAAAAAAAAAAAAAAAAAAAAAAAAAAAAAAAAAAAAAAAAAAAAAAAAAAAAAAAAAAAAAAAAAAAAAAAAAAAAAAAAAAAAAAAAAAAAAAAAAAAAAAAAAAAAAAAAAAAAAAAAAAAAAAAAAAAAAAAAAAAAAAAAAAAAAAAAAAAAAAAAAAAAAAAAAAAAAAAAAAAAAAAAAAAAAAAAAAAAAAAAAAAAAAAAAAAAAAAAAAAAAAAAAAGAMAAAATAwAAARIBAAABBhIAAAAkBAAAAAAlBAAAAAAmBAAAAAAJBgwAAAAoBAAAAAApBAAAAAAaBngAAAAEBh4AAABUAGkAbQBlAHMAIABOAGUAdwAgAFIAbwBtAGEAbgAFBh4AAABUAGkAbQBlAHMAIABOAGUAdwAgAFIAbwBtAGEAbgAHBh4AAABUAGkAbQBlAHMAIABOAGUAdwAgAFIAbwBtAGEAbgAIBBwAAAAWBBwAAAAbBmQAAAAAFAAAAAADAAAABQQAAAAABgQEAAAAAwEAARQAAAAAAwAAAAUEAAAAAAYEBAAAAAMBAAIUAAAAAAMAAAAFBAAAAAAGBAQAAAADAQADFAAAAAADAAAABQQAAAAABgQEAAAAAwEAAvcBAAAFxgAAAAGhAAAABAYeAAAAVABpAG0AZQBzACAATgBlAHcAIABSAG8AbQBhAG4ABQYeAAAAVABpAG0AZQBzACAATgBlAHcAIABSAG8AbQBhAG4ABwYeAAAAVABpAG0AZQBzACAATgBlAHcAIABSAG8AbQBhAG4ABgYeAAAAVABpAG0AZQBzACAATgBlAHcAIABSAG8AbQBhAG4ACAQcAAAACQMAAAAWBBwAAAAIGwAAAAAWAAAAIABFAHgAYQBtAGkAbgBlAHIAIACgAAWCAAAAAXgAAAAEBh4AAABUAGkAbQBlAHMAIABOAGUAdwAgAFIAbwBtAGEAbgAFBh4AAABUAGkAbQBlAHMAIABOAGUAdwAgAFIAbwBtAGEAbgAHBh4AAABUAGkAbQBlAHMAIABOAGUAdwAgAFIAbwBtAGEAbgAIBBwAAAAWBBwAAAAIAAAAAAWCAAAAAXgAAAAEBh4AAABUAGkAbQBlAHMAIABOAGUAdwAgAFIAbwBtAGEAbgAFBh4AAABUAGkAbQBlAHMAIABOAGUAdwAgAFIAbwBtAGEAbgAHBh4AAABUAGkAbQBlAHMAIABOAGUAdwAgAFIAbwBtAGEAbgAIBBwAAAAWBBwAAAAIAAAAAAUKAAAAAQAAAAAIAAAAAAUKAAAACAUAAAANAAAAAAoAAAAAAAAAABEAAAAAbwAAAAAVAAAAAQYAAAAACQYAAAAAGQEAGwYAAAAAAUsAAAAoAQcpAQcqAQcrAQUTAQEIBBYAAAAWBBYAAAAZBgoAAABlAG4ALQBVAFMAGgYKAAAAYQByAC0AUwBBABsGCgAAAGUAbgAtAFUAUwACAAAAAA==&quot; style=&quot;font-family: &amp;quot;Times New Roman&amp;quot;;&quot;&gt;&lt;font style=&quot;font-size: 14px;&quot;&gt;Examiner&amp;nbsp;&amp;nbsp;&lt;/font&gt;&lt;/span&gt;&lt;/div&gt;" style="strokeWidth=2;html=1;shape=mxgraph.flowchart.extract_or_measurement;whiteSpace=wrap;" vertex="1" parent="1">
          <mxGeometry x="480" y="1060" width="95" height="60" as="geometry" />
        </mxCell>
        <mxCell id="tm14qbuh2MyFYimfuB26-11" value="&lt;span style=&quot;font-family: &amp;quot;Times New Roman&amp;quot;; font-size: 14px;&quot;&gt;Examiner&lt;/span&gt;&lt;div&gt;&lt;span style=&quot;font-family: &amp;quot;Times New Roman&amp;quot;; font-size: 14px;&quot;&gt;&lt;br&gt;&lt;/span&gt;&lt;/div&gt;&lt;div&gt;&lt;span style=&quot;font-family: &amp;quot;Times New Roman&amp;quot;; font-size: 14px;&quot;&gt;&amp;nbsp;&amp;nbsp;&lt;/span&gt;&lt;/div&gt;" style="strokeWidth=2;html=1;shape=mxgraph.flowchart.merge_or_storage;whiteSpace=wrap;" vertex="1" parent="1">
          <mxGeometry x="480" y="1280" width="95" height="60" as="geometry" />
        </mxCell>
        <mxCell id="tm14qbuh2MyFYimfuB26-14" style="edgeStyle=orthogonalEdgeStyle;rounded=0;orthogonalLoop=1;jettySize=auto;html=1;entryX=0.5;entryY=0;entryDx=0;entryDy=0;" edge="1" parent="1" source="tm14qbuh2MyFYimfuB26-12" target="tm14qbuh2MyFYimfuB26-4">
          <mxGeometry relative="1" as="geometry" />
        </mxCell>
        <mxCell id="tm14qbuh2MyFYimfuB26-12" value="ADVANCE 25" style="rounded=0;whiteSpace=wrap;html=1;" vertex="1" parent="1">
          <mxGeometry x="360" y="960" width="120" height="60" as="geometry" />
        </mxCell>
      </root>
    </mxGraphModel>
  </diagram>
</mxfile>
